{"title":"Ek Paheli Leela (2015) New DvD Scr Rip - XviD - [1CD] - IcTv Lot","uid":11811951,"size":742215356,"categoryP":"video","categoryS":"other","magnet":"?xt=urn:btih:8737be153a3c5b73a584f6a78f2863b306ad8919&amp;dn=Ek+Paheli+Leela+%282015%29+New+DvD+Scr+Rip+-+XviD+-+%5B1CD%5D+-+IcTv+Lot&amp;tr=udp%3A%2F%2Ftracker.openbittorrent.com%3A80&amp;tr=udp%3A%2F%2Fopen.demonii.com%3A1337&amp;tr=udp%3A%2F%2Ftracker.coppersurfer.tk%3A6969&amp;tr=udp%3A%2F%2Fexodus.desync.com%3A6969","seeders":6,"leechers":1,"uploader":"SS132203","files":4,"time":1428859566,"description":"Ek Paheli Leela (2015) New DvD Scr Rip - XviD - [1CD] - IcTv LotterY -={SPARROW}=-\n &lt;a href=&quot;\nhttp://imgsparrow.co/image/9j&quot; rel=&quot;nofollow&quot; target=&quot;_NEW&quot;&gt;\nhttp://imgsparrow.co/image/9j&lt;/a&gt;\n &lt;a href=&quot;\nhttp://imgsparrow.co/image/9b&quot; rel=&quot;nofollow&quot; target=&quot;_NEW&quot;&gt;\nhttp://imgsparrow.co/image/9b&lt;/a&gt;\n\nMovie Info\nBanner : T-Series Super Cassettes Industries Ltd.\nYear : 2015\nCast : Sunny Leone - Jai Bhanshali\nVideo: XviD\nAudio : MP3\nGenre : Thriller\nSubtitles : None\nResolution : x\nRuntime : 2hr 20min\nSource : Lingaa Thanks\n\nFormat                      : AVI\nFormat/Info                 : Audio Video Interleave\nFile size                   : 699 MiB\nDuration                    : 2h 16mn\nOverall bit rate            : 718 Kbps\n\nVideo\nCodec ID                    : XVID\nCodec ID/Hint               : XviD\nDuration                    : 2h 16mn\nBit rate                    : 577 Kbps\nWidth                       : 640 pixels\nHeight                      : 272 pixels\nDisplay aspect ratio        : 2.35:1\nFrame rate                  : 25.000 fps\nColor space                 : YUV\nChroma subsampling          : 4:2:0\nBit depth                   : 8 bits\nScan type                   : Progressive\nCompression mode            : Lossy\nBits/(Pixel*Frame)          : 0.133\nStream size                 : 562 MiB (80%)\n\nAudio\nID                          : 1\nFormat                      : MPEG Audio\nFormat version              : Version 1\nFormat profile              : Layer 3\nMode                        : Joint stereo\nMode extension              : MS Stereo\nCodec ID                    : 55\nCodec ID/Hint               : MP3\nDuration                    : 2h 16mn\nBit rate mode               : Constant\nBit rate                    : 128 Kbps\nChannel(s)                  : 2 channels\nSampling rate               : 48.0 KHz\nCompression mode            : Lossy\nStream size                 : 125 MiB (18%)\n &lt;a href=&quot;\nhttp://imgsparrow.co/image/9h&quot; rel=&quot;nofollow&quot; target=&quot;_NEW&quot;&gt;\nhttp://imgsparrow.co/image/9h&lt;/a&gt;\n &lt;a href=&quot;\nhttp://imgsparrow.co/image/9r&quot; rel=&quot;nofollow&quot; target=&quot;_NEW&quot;&gt;\nhttp://imgsparrow.co/image/9r&lt;/a&gt; &lt;a href=&quot;\nhttp://imgsparrow.co/image/9D&quot; rel=&quot;nofollow&quot; target=&quot;_NEW&quot;&gt;\nhttp://imgsparrow.co/image/9D&lt;/a&gt; &lt;a href=&quot;\nhttp://imgsparrow.co/image/9G&quot; rel=&quot;nofollow&quot; target=&quot;_NEW&quot;&gt;\nhttp://imgsparrow.co/image/9G&lt;/a&gt; &lt;a href=&quot;\nhttp://imgsparrow.co/image/9e&quot; rel=&quot;nofollow&quot; target=&quot;_NEW&quot;&gt;\nhttp://imgsparrow.co/image/9e&lt;/a&gt; &lt;a href=&quot;\nhttp://imgsparrow.co/image/9g&quot; rel=&quot;nofollow&quot; target=&quot;_NEW&quot;&gt;\nhttp://imgsparrow.co/image/9g&lt;/a&gt; &lt;a href=&quot;\nhttp://imgsparrow.co/image/9q&quot; rel=&quot;nofollow&quot; target=&quot;_NEW&quot;&gt;\nhttp://imgsparrow.co/image/9q&lt;/a&gt; &lt;a href=&quot;\nhttp://imgsparrow.co/image/9z&quot; rel=&quot;nofollow&quot; target=&quot;_NEW&quot;&gt;\nhttp://imgsparrow.co/image/9z&lt;/a&gt; &lt;a href=&quot;\nhttp://imgsparrow.co/image/97&quot; rel=&quot;nofollow&quot; target=&quot;_NEW&quot;&gt;\nhttp://imgsparrow.co/image/97&lt;/a&gt;\n\nAll Credit Goes To Intellect Clever &amp; IcTv\nSAMPLE Within Torrent\n &lt;a href=&quot;\nhttp://imgsparrow.org/images/2015/02/22/SPARROW.gif&quot; rel=&quot;nofollow&quot; target=&quot;_NEW&quot;&gt;\nhttp://imgsparrow.org/images/2015/02/22/SPARROW.gif&lt;/a&gt;","torrent":{"xt":"urn:btih:8737be153a3c5b73a584f6a78f2863b306ad8919","amp;dn":"Ek+Paheli+Leela+%282015%29+New+DvD+Scr+Rip+-+XviD+-+%5B1CD%5D+-+IcTv+Lot","amp;tr":["udp%3A%2F%2Ftracker.openbittorrent.com%3A80","udp%3A%2F%2Fopen.demonii.com%3A1337","udp%3A%2F%2Ftracker.coppersurfer.tk%3A6969","udp%3A%2F%2Fexodus.desync.com%3A6969"],"infoHash":"8737be153a3c5b73a584f6a78f2863b306ad8919","infoHashBuffer":{"type":"Buffer","data":[135,55,190,21,58,60,91,115,165,132,246,167,143,40,99,179,6,173,137,25]},"announce":[],"urlList":[]}}